<?xml version="1.0" encoding="utf-8"?>
<!-- Generator: Adobe Illustrator 23.0.0, SVG Export Plug-In . SVG Version: 6.00 Build 0)  -->
<svg version="1.1" id="Layer_1" xmlns="http://www.w3.org/2000/svg" xmlns:xlink="http://www.w3.org/1999/xlink" x="0px" y="0px"
	 viewBox="0 0 201.2 151.5" style="enable-background:new 0 0 201.2 151.5;" xml:space="preserve">
<style type="text/css">
	.st0{fill:#FCEE21;}
</style>
<g>
	<path class="st0" d="M90.44,151.5c-0.28,0-0.84,0-1.12-0.28c-1.67-0.56-2.79-1.95-3.07-3.63l-6.41-71.96l-9.2,5.02
		c-1.39,0.84-3.07,0.56-4.46-0.28L1.74,35.2c-1.39-1.12-1.95-2.79-1.67-4.46s1.67-3.07,3.63-3.07L196.42,0.05
		c1.67-0.28,3.35,0.56,4.18,1.95s0.84,3.35-0.28,4.74L93.78,149.83C93.23,150.94,91.83,151.5,90.44,151.5z M87.65,69.78l5.86,66.38
		l88.14-118.54L87.65,69.78z M15.41,34.36l52.16,36.82l107.66-59.69L15.41,34.36z"/>
</g>
</svg>
